<?xml version="1.0" standalone="no"?>
<!DOCTYPE svg PUBLIC "-//W3C//DTD SVG 20010904//EN"
 "http://www.w3.org/TR/2001/REC-SVG-20010904/DTD/svg10.dtd">
<svg version="1.0" xmlns="http://www.w3.org/2000/svg"
 width="394.000000pt" height="394.000000pt" viewBox="0 0 394.000000 394.000000"
 preserveAspectRatio="xMidYMid meet">
<metadata>
Created by potrace 1.14, written by Peter Selinger 2001-2017
</metadata>
<g transform="translate(0.000000,394.000000) scale(0.100000,-0.100000)"
fill="#000000" stroke="none">
<path d="M1680 2731 c0 -6 -15 -7 -36 -4 -25 4 -39 2 -45 -8 -8 -12 -10 -12
-18 0 -7 11 -17 11 -58 -3 -27 -9 -75 -17 -106 -19 -49 -2 -57 -5 -53 -19 4
-17 -36 -33 -132 -53 -28 -6 -31 -9 -21 -22 11 -12 14 -12 21 2 5 8 14 13 19
9 6 -3 5 -12 -3 -21 -7 -9 -13 -28 -13 -42 0 -19 -5 -25 -17 -23 -10 2 -18 -2
-18 -8 0 -5 5 -10 12 -10 6 0 9 -3 6 -6 -3 -3 -15 0 -27 7 -27 17 -85 -3 -117
-40 -62 -74 -74 -85 -81 -78 -4 5 -1 13 7 18 13 9 13 10 0 6 -9 -2 -14 -14
-13 -26 3 -22 3 -22 -152 -16 -154 5 -200 1 -173 -16 8 -6 -2 -9 -29 -9 -23 0
-45 -5 -48 -10 -4 -6 -15 -8 -26 -5 -14 5 -17 2 -13 -8 2 -7 -2 -20 -11 -27
-8 -7 -15 -19 -15 -26 0 -8 -4 -14 -10 -14 -5 0 -10 5 -10 10 0 6 -4 10 -9 10
-5 0 -8 -12 -8 -26 0 -18 2 -22 8 -13 6 11 8 9 8 -6 -2 -33 -16 -83 -18 -61
-1 15 -4 17 -12 9 -8 -8 -8 -21 1 -48 7 -20 13 -85 14 -143 1 -72 6 -107 14
-110 18 -6 14 -22 -5 -23 -11 0 -13 -3 -5 -6 14 -5 17 -73 3 -73 -5 0 -8 -7
-7 -16 0 -9 -6 -19 -14 -21 -13 -4 -13 -3 0 7 12 8 4 10 -35 8 -27 -1 -74 4
-104 11 -43 11 -55 11 -61 1 -5 -8 -19 -11 -38 -7 -16 3 -34 1 -41 -6 -8 -8
-11 -7 -11 7 0 9 -5 14 -10 11 -6 -4 -8 -10 -5 -15 7 -12 -13 -47 -49 -81 -17
-17 -26 -35 -22 -44 3 -8 1 -15 -4 -15 -6 0 -10 -9 -10 -20 0 -11 5 -20 11
-20 8 0 9 -11 4 -32 -4 -18 -7 -82 -6 -143 1 -60 -2 -105 -6 -100 -4 6 -25 11
-45 13 l-38 4 0 -661 0 -661 1970 0 1970 0 0 645 0 645 -37 1 c-21 1 -81 2
-133 3 -52 1 -104 6 -114 10 -14 7 -17 6 -12 -2 5 -8 -1 -12 -18 -12 -23 0
-24 3 -23 44 1 24 4 44 7 44 22 -2 33 6 50 35 11 17 20 42 20 55 0 12 15 45
34 72 19 28 37 65 41 82 10 51 26 88 36 82 5 -3 12 2 15 10 3 9 14 16 23 16 9
0 12 3 6 8 -20 13 -2 102 21 102 7 0 21 17 29 37 9 21 21 41 28 45 9 6 9 10 0
16 -9 5 -9 18 0 50 6 23 15 42 19 42 13 0 9 38 -4 43 -10 4 -9 8 2 17 12 10
11 11 -9 6 -15 -3 -33 2 -47 13 -20 16 -42 18 -171 16 -81 -1 -175 1 -208 4
l-60 6 85 6 c59 4 27 6 -105 6 -195 1 -214 -1 -110 -15 44 -6 26 -7 -70 -5
-71 2 -181 3 -242 2 -73 0 -113 3 -113 9 0 6 17 13 38 15 20 2 3 3 -38 3 -41
-1 -77 -3 -80 -6 -3 -3 -28 -19 -56 -36 -36 -22 -56 -29 -71 -23 -18 6 -20 4
-17 -21 2 -16 -1 -32 -6 -35 -6 -3 -10 0 -10 7 0 23 -20 -15 -20 -39 0 -12 -4
-24 -10 -28 -5 -3 -7 12 -3 40 6 48 -2 59 -17 23 -7 -19 -9 -16 -9 20 -1 26
-5 41 -11 37 -12 -8 -13 16 -1 47 6 17 5 29 -5 43 -10 13 -14 15 -14 4 0 -12
-2 -12 -9 0 -5 8 -3 27 5 47 9 20 10 34 4 34 -5 0 -10 -6 -10 -14 0 -29 -19
-25 -39 9 -19 32 -19 35 -3 44 15 8 13 11 -12 21 -29 11 -55 36 -56 54 0 5 7
3 15 -4 12 -10 15 -10 15 3 0 19 -36 41 -55 33 -19 -7 -27 5 -13 21 8 10 8 12
-4 8 -18 -7 -32 21 -16 31 7 5 8 2 3 -7 -8 -12 -6 -12 8 0 24 19 21 34 -4 26
-15 -5 -19 -4 -15 4 9 14 0 14 -24 1 -13 -7 -21 -5 -31 7 -10 12 -10 15 -1 9
15 -9 16 6 1 21 -6 6 -18 9 -25 6 -8 -3 -27 6 -44 18 -80 63 -94 73 -87 62 5
-7 4 -13 -2 -13 -14 0 -14 13 0 27 8 8 8 13 0 18 -6 3 -18 -1 -27 -9 -19 -19
-25 -20 -22 -4 2 7 -1 12 -7 13 -5 0 -34 7 -62 14 -50 12 -67 31 -43 46 6 3
10 12 10 18 0 8 -3 8 -8 2 -10 -14 -52 -19 -52 -6 0 14 -37 14 -45 1 -4 -6
-10 -8 -15 -5 -17 10 -200 16 -200 6z m281 -157 c180 -54 354 -203 447 -382
30 -59 28 -69 -9 -33 -57 58 -114 84 -194 89 -62 4 -80 1 -121 -19 -27 -13
-67 -43 -90 -66 l-41 -42 -61 59 c-106 103 -225 118 -345 42 -55 -34 -66 -47
-101 -116 l-39 -78 -36 6 c-20 3 -51 6 -69 6 l-34 0 7 42 c16 94 58 159 185
289 64 65 180 149 207 149 7 0 13 4 13 9 0 16 141 56 206 60 11 1 45 -6 75
-15z m399 -88 c0 -3 -4 -8 -10 -11 -5 -3 -10 -1 -10 4 0 6 5 11 10 11 6 0 10
-2 10 -4z m-621 -316 c56 -16 119 -70 147 -128 23 -45 26 -61 22 -117 -7 -75
-39 -128 -106 -170 -39 -25 -50 -27 -118 -23 -75 3 -76 4 -119 49 -29 31 -49
64 -59 99 -20 66 -20 83 -1 148 19 63 52 104 108 131 46 23 75 26 126 11z
m524 -21 c11 -7 30 -20 41 -30 11 -11 23 -19 26 -19 3 0 21 -21 39 -47 100
-141 1 -343 -168 -343 -61 0 -97 13 -134 48 -51 48 -70 98 -69 181 2 89 26
139 90 188 37 28 52 33 98 33 31 0 65 -5 77 -11z m553 -135 c18 -15 19 -21 9
-58 -22 -78 -48 -135 -82 -182 -13 -17 -23 -38 -23 -47 0 -10 -9 -26 -20 -37
-11 -11 -20 -22 -20 -25 0 -2 -11 -28 -24 -57 -13 -29 -32 -72 -42 -95 -10
-24 -21 -43 -24 -43 -4 0 -13 -19 -20 -42 -8 -24 -17 -47 -21 -53 -4 -5 -22
-37 -40 -70 -56 -105 -42 -100 -292 -103 -187 -3 -221 -1 -242 12 -14 9 -25
25 -25 35 0 40 24 46 219 49 102 1 196 5 207 7 17 4 58 78 189 342 147 294
199 383 224 383 4 0 16 -7 27 -16z m-1401 -106 c24 -148 134 -247 286 -256 88
-5 137 14 206 80 l41 40 38 -42 c53 -59 118 -89 208 -97 64 -5 80 -3 119 16
54 26 105 71 141 125 31 47 34 31 10 -71 -14 -61 -103 -278 -127 -310 -7 -10
-54 -13 -172 -13 -184 0 -234 -11 -276 -60 -16 -19 -37 -32 -54 -33 -28 -2
-29 -1 -26 51 4 82 -23 146 -88 213 -65 67 -96 78 -227 86 -101 6 -178 -13
-187 -47 -10 -37 7 -43 129 -44 133 -2 171 -13 219 -65 58 -60 83 -182 45
-216 -18 -16 -25 -16 -67 -5 -188 50 -330 210 -372 417 -20 97 -28 252 -14
266 3 4 41 7 84 7 l77 0 7 -42z m1752 -193 c9 -20 25 -36 35 -36 18 -1 52 -5
65 -8 4 0 -10 -19 -31 -40 -37 -37 -38 -42 -32 -85 4 -25 5 -46 2 -46 -3 0
-26 10 -51 22 l-45 22 -52 -22 c-28 -12 -54 -19 -57 -17 -3 3 3 26 12 52 17
44 16 47 -3 80 -11 19 -20 36 -20 39 0 2 19 4 41 4 35 0 47 6 73 34 17 19 34
35 39 35 4 1 15 -15 24 -34z m-2899 -84 c19 -22 48 -26 180 -23 67 2 86 6 102
22 21 21 37 24 65 14 15 -6 16 -28 10 -223 -4 -119 -11 -229 -17 -244 -14 -38
-43 -47 -136 -46 -139 1 -240 13 -257 30 -14 14 -16 48 -15 239 0 146 4 228
12 237 15 19 37 16 56 -6z m571 -55 c34 -36 34 -129 1 -190 -23 -44 -44 -58
-102 -72 -27 -6 -28 -5 -28 32 1 34 6 43 41 67 35 24 40 32 37 60 -2 25 -8 33
-26 35 -13 2 -30 -2 -38 -8 -12 -10 -14 -7 -14 19 0 69 83 106 129 57z m2063
-8 c-8 -8 -9 -4 -5 13 4 13 8 18 11 10 2 -7 -1 -18 -6 -23z m42 7 c-4 -8 -11
-15 -16 -15 -6 0 -5 6 2 15 7 8 14 15 16 15 2 0 1 -7 -2 -15z"/>
<path d="M1751 2044 c-18 -23 -21 -41 -21 -130 0 -112 9 -134 55 -134 35 0 52
41 61 142 6 79 5 89 -15 117 -27 38 -53 39 -80 5z"/>
<path d="M2046 2038 c-23 -33 -23 -220 0 -243 25 -25 57 -14 76 25 24 47 25
201 2 224 -22 23 -60 20 -78 -6z"/>
<path d="M1904 1629 c-41 -12 -68 -42 -59 -68 9 -28 31 -32 100 -18 55 12 60
15 63 40 6 52 -29 68 -104 46z"/>
<path d="M1398 2713 c7 -3 16 -2 19 1 4 3 -2 6 -13 5 -11 0 -14 -3 -6 -6z"/>
<path d="M2030 2710 c-13 -8 -12 -10 3 -10 9 0 17 5 17 10 0 12 -1 12 -20 0z"/>
<path d="M2018 2683 c6 -2 18 -2 25 0 6 3 1 5 -13 5 -14 0 -19 -2 -12 -5z"/>
<path d="M1200 2569 c0 -5 5 -7 10 -4 6 3 10 8 10 11 0 2 -4 4 -10 4 -5 0 -10
-5 -10 -11z"/>
<path d="M2255 2570 c-3 -5 3 -10 15 -10 12 0 18 5 15 10 -3 6 -10 10 -15 10
-5 0 -12 -4 -15 -10z"/>
<path d="M1148 2533 c7 -3 16 -2 19 1 4 3 -2 6 -13 5 -11 0 -14 -3 -6 -6z"/>
<path d="M961 2434 c0 -11 3 -14 6 -6 3 7 2 16 -1 19 -3 4 -6 -2 -5 -13z"/>
<path d="M935 2390 l-30 -8 27 -1 c15 0 30 4 33 9 3 6 5 9 3 9 -2 -1 -16 -5
-33 -9z"/>
<path d="M2521 2284 c0 -11 3 -14 6 -6 3 7 2 16 -1 19 -3 4 -6 -2 -5 -13z"/>
<path d="M3480 2170 c-41 -6 -42 -7 -10 -8 19 0 58 3 85 8 47 7 48 7 10 7 -22
0 -60 -3 -85 -7z"/>
<path d="M2725 2160 c-3 -5 3 -10 15 -10 12 0 18 5 15 10 -3 6 -10 10 -15 10
-5 0 -12 -4 -15 -10z"/>
<path d="M3048 2153 c7 -3 16 -2 19 1 4 3 -2 6 -13 5 -11 0 -14 -3 -6 -6z"/>
<path d="M3789 2151 c12 -8 51 -4 51 5 0 2 -15 4 -32 4 -23 0 -29 -3 -19 -9z"/>
<path d="M3855 2140 c3 -5 10 -10 16 -10 5 0 9 5 9 10 0 6 -7 10 -16 10 -8 0
-12 -4 -9 -10z"/>
<path d="M3907 1904 c-3 -3 -3 -14 0 -25 6 -20 33 -27 33 -8 0 13 -26 40 -33
33z"/>
<path d="M80 1691 c0 -6 4 -13 10 -16 6 -3 7 1 4 9 -7 18 -14 21 -14 7z"/>
<path d="M0 1370 c0 -5 5 -10 10 -10 6 0 10 5 10 10 0 6 -4 10 -10 10 -5 0
-10 -4 -10 -10z"/>
</g>
</svg>
